{
	"asset":{
		"generator":"Khronos glTF Blender I/O v5.2.39",
		"version":"2.0"
	},
	"scene":0,
	"scenes":[
		{
			"name":"Scene",
			"nodes":[
				0
			]
		}
	],
	"nodes":[
		{
			"mesh":0,
			"name":"ship"
		}
	],
	"meshes":[
		{
			"name":"ship",
			"primitives":[
				{
					"attributes":{
						"POSITION":0,
						"NORMAL":1
					},
					"indices":2
				}
			]
		}
	],
	"accessors":[
		{
			"bufferView":0,
			"componentType":5126,
			"count":426,
			"max":[
				2.4600000381469727,
				2.759999990463257,
				3
			],
			"min":[
				-2.4600000381469727,
				-2.4600000381469727,
				-3
			],
			"type":"VEC3"
		},
		{
			"bufferView":1,
			"componentType":5126,
			"count":426,
			"type":"VEC3"
		},
		{
			"bufferView":2,
			"componentType":5123,
			"count":1800,
			"type":"SCALAR"
		}
	],
	"bufferViews":[
		{
			"buffer":0,
			"byteLength":5112,
			"byteOffset":0,
			"target":34962
		},
		{
			"buffer":0,
			"byteLength":5112,
			"byteOffset":5112,
			"target":34962
		},
		{
			"buffer":0,
			"byteLength":3600,
			"byteOffset":10224,
			"target":34963
		}
	],
	"buffers":[
		{
			"byteLength":13824,
			"uri":"ship.bin"
		}
	]
}
